<svg width="94" height="94" viewBox="0 0 94 94" fill="none" xmlns="http://www.w3.org/2000/svg">
<g clip-path="url(#clip0_141_581)">
<path fill-rule="evenodd" clip-rule="evenodd" d="M42.292 87.7118C63.0295 86.0433 79.3384 68.6854 79.3384 47.5183C79.3384 26.3512 63.0295 8.99328 42.292 7.32479C43.3733 7.23779 44.4667 7.19345 45.5704 7.19345C67.8412 7.19345 85.8952 25.2475 85.8952 47.5183C85.8952 69.7891 67.8412 87.8431 45.5704 87.8431C44.4667 87.8431 43.3733 87.7988 42.292 87.7118Z" fill="#4B94F7"/>
<path fill-rule="evenodd" clip-rule="evenodd" d="M43.6035 87.7118C22.866 86.0433 6.55707 68.6853 6.55707 47.5183C6.55707 26.3512 22.866 8.99327 43.6035 7.32478C42.5222 7.23778 41.4288 7.19344 40.3251 7.19344C18.0543 7.19344 0.000295639 25.2475 0.000295639 47.5183C0.000295639 69.7891 18.0543 87.8431 40.3251 87.8431C41.4288 87.8431 42.5222 87.7988 43.6035 87.7118Z" fill="#51BC6E"/>
<path d="M82.3064 7.51038L62.6202 31.015C62.5777 31.0657 62.5052 31.0791 62.4475 31.0469L62.0022 30.7985C60.1641 29.7733 57.8516 30.112 56.3664 31.6033C56.1932 31.7771 55.9112 31.7842 55.732 31.6165L48.9925 25.3113C47.944 24.3304 46.3125 24.3371 45.2721 25.3267C44.1724 26.3726 44.1456 28.1176 45.2127 29.1968L68.7083 52.9616C69.7939 54.0596 71.5591 54.0855 72.6765 53.0198C73.8068 51.9416 73.8506 50.1517 72.7743 49.0196L66.5079 42.4285C66.3409 42.2528 66.3569 41.9725 66.5428 41.8169L66.7316 41.659C68.428 40.2396 68.5879 37.6881 67.0819 36.0681C67.0434 36.0267 67.0473 35.9615 67.0905 35.9251L90.74 15.9297C92.4956 14.4453 92.6098 11.7782 90.9873 10.1492L88.1098 7.26017C86.4778 5.62161 83.7913 5.73744 82.3064 7.51038Z" fill="#51BC6E"/>
<path d="M68.6346 56.4692L41.2419 29.5744C31.6854 37.121 10.7599 46.0993 1.4917 49.6451C2.72746 51.0501 5.61089 54.8635 8.49433 55.6663C11.0991 56.3916 16.5268 53.86 29.5022 46.8352C24.724 51.1705 15.291 56.6699 11.1718 58.8777C11.1031 58.8777 11.5013 59.4396 13.6433 61.6876C15.7853 63.9355 19.7535 63.1594 21.4698 62.4904L33.8274 56.0678C31.6305 58.3424 25.589 63.6946 18.9983 66.9059C21.9641 70.7595 29.2963 68.244 32.5916 66.5045C31.0126 67.7088 27.1131 70.4384 24.1473 71.7229C44.908 86.8161 62.4558 67.8426 68.6346 56.4692Z" fill="#4B94F7"/>
</g>
<defs>
<clipPath id="clip0_141_581">
<rect width="94" height="94" fill="white"/>
</clipPath>
</defs>
</svg>
