<svg width="58" height="56" viewBox="0 0 58 56" fill="none" xmlns="http://www.w3.org/2000/svg">
<path fill-rule="evenodd" clip-rule="evenodd" d="M28.3446 54.9382C42.2431 53.8199 53.1735 42.1864 53.1735 28C53.1735 13.8136 42.2431 2.18009 28.3446 1.06182C29.0693 1.00351 29.8021 0.973785 30.5419 0.973785C45.468 0.973785 57.5681 13.0738 57.5681 28C57.5681 42.9262 45.468 55.0262 30.5419 55.0262C29.8021 55.0262 29.0694 54.9965 28.3446 54.9382Z" fill="#4B94F7"/>
<path fill-rule="evenodd" clip-rule="evenodd" d="M29.2235 54.9382C15.3249 53.8199 4.39448 42.1864 4.39448 28C4.39448 13.8136 15.3249 2.18006 29.2235 1.06181C28.4988 1.0035 27.766 0.973785 27.0263 0.973785C12.1001 0.973785 4.57764e-05 13.0738 4.57764e-05 28C4.57764e-05 42.9262 12.1001 55.0262 27.0263 55.0262C27.766 55.0262 28.4988 54.9965 29.2235 54.9382Z" fill="#51BC6E"/>
<path d="M50.1151 6.03015L39.8099 18.2849C39.7869 18.3123 39.7477 18.3195 39.7164 18.3021L39.4736 18.1672C38.4787 17.6145 37.2288 17.7974 36.424 18.6021C36.3302 18.696 36.1777 18.6998 36.0806 18.6093L32.4275 15.2053C31.8616 14.678 30.9832 14.6816 30.4217 15.2136C29.8247 15.7791 29.8102 16.7251 30.3895 17.3087L43.1102 30.1236C43.6963 30.7141 44.6468 30.728 45.25 30.155C45.8637 29.572 45.8875 28.6015 45.303 27.9891L41.9148 24.4396C41.8245 24.345 41.8331 24.1936 41.9336 24.1098L42.0367 24.0239C42.9535 23.2599 43.0398 21.8823 42.2255 21.0098C42.2047 20.9875 42.2068 20.9523 42.2301 20.9327L54.6019 10.5144C55.7837 9.51913 55.8604 7.7256 54.7679 6.63308L53.9975 5.8627C52.9045 4.76967 51.1099 4.84706 50.1151 6.03015Z" fill="#51BC6E"/>
<path d="M43.2859 32.0649L28.6742 17.3433C23.5765 21.4741 12.4145 26.3887 7.47067 28.3296C8.12985 29.0986 9.66793 31.186 11.206 31.6255C12.5954 32.0224 15.4906 30.6367 22.412 26.7915C19.8632 29.1645 14.8315 32.1748 12.6342 33.3833C12.5976 33.3833 12.81 33.6909 13.9526 34.9213C15.0951 36.1518 17.2118 35.727 18.1273 35.3608L24.7191 31.8452C23.5472 33.0903 20.3246 36.02 16.809 37.7778C18.391 39.8871 22.3021 38.5102 24.0599 37.558C23.2176 38.2172 21.1376 39.7113 19.5556 40.4145C30.6297 48.6761 39.99 38.2905 43.2859 32.0649Z" fill="#4B94F7"/>
<path d="M15.9519 11.1885C16.1331 10.6987 16.8257 10.6987 17.007 11.1885L17.3392 12.0863C17.3962 12.2403 17.5176 12.3617 17.6715 12.4186L18.5694 12.7509C19.0591 12.9321 19.0591 13.6247 18.5694 13.8059L17.6715 14.1382C17.5176 14.1952 17.3962 14.3165 17.3392 14.4705L17.007 15.3684C16.8257 15.8581 16.1331 15.8581 15.9519 15.3684L15.6196 14.4705C15.5627 14.3165 15.4413 14.1952 15.2873 14.1382L14.3895 13.8059C13.8997 13.6247 13.8997 12.9321 14.3895 12.7509L15.2873 12.4186C15.4413 12.3617 15.5627 12.2403 15.6196 12.0863L15.9519 11.1885Z" fill="#51BC6E"/>
<path d="M23.148 8.7654C23.2725 8.42872 23.7487 8.42872 23.8733 8.7654L24.1017 9.38267C24.1409 9.48852 24.2244 9.57198 24.3302 9.61115L24.9475 9.83956C25.2842 9.96414 25.2842 10.4403 24.9475 10.5649L24.3302 10.7933C24.2244 10.8325 24.1409 10.916 24.1017 11.0218L23.8733 11.6391C23.7487 11.9758 23.2725 11.9758 23.148 11.6391L22.9195 11.0218C22.8804 10.916 22.7969 10.8325 22.6911 10.7933L22.0738 10.5649C21.7371 10.4403 21.7371 9.96414 22.0738 9.83956L22.6911 9.61115C22.7969 9.57198 22.8804 9.48852 22.9195 9.38267L23.148 8.7654Z" fill="#51BC6E"/>
<path d="M39.4076 43.7017C39.5322 43.365 40.0084 43.365 40.133 43.7017L40.3614 44.319C40.4005 44.4248 40.484 44.5083 40.5899 44.5475L41.2071 44.7759C41.5438 44.9005 41.5438 45.3767 41.2071 45.5012L40.5899 45.7297C40.484 45.7688 40.4005 45.8523 40.3614 45.9581L40.133 46.5754C40.0084 46.9121 39.5322 46.9121 39.4076 46.5754L39.1792 45.9581C39.14 45.8523 39.0566 45.7688 38.9507 45.7297L38.3334 45.5012C37.9968 45.3767 37.9968 44.9005 38.3334 44.7759L38.9507 44.5475C39.0566 44.5083 39.14 44.4248 39.1792 44.319L39.4076 43.7017Z" fill="#4B94F7"/>
<path d="M20.8298 15.3096C20.9205 15.0647 21.2668 15.0647 21.3574 15.3096L21.5235 15.7585C21.552 15.8355 21.6127 15.8962 21.6897 15.9247L22.1386 16.0908C22.3835 16.1814 22.3835 16.5277 22.1386 16.6183L21.6897 16.7844C21.6127 16.8129 21.552 16.8736 21.5235 16.9506L21.3574 17.3995C21.2668 17.6444 20.9205 17.6444 20.8298 17.3995L20.6637 16.9506C20.6352 16.8736 20.5745 16.8129 20.4976 16.7844L20.0486 16.6183C19.8038 16.5277 19.8038 16.1814 20.0486 16.0908L20.4976 15.9247C20.5745 15.8962 20.6352 15.8355 20.6637 15.7585L20.8298 15.3096Z" fill="#51BC6E"/>
<path d="M34.8923 45.8514C34.9829 45.6065 35.3293 45.6065 35.4199 45.8514L35.586 46.3003C35.6145 46.3773 35.6752 46.438 35.7521 46.4665L36.2011 46.6326C36.4459 46.7232 36.4459 47.0695 36.2011 47.1601L35.7521 47.3262C35.6752 47.3547 35.6145 47.4154 35.586 47.4924L35.4199 47.9413C35.3293 48.1862 34.9829 48.1862 34.8923 47.9413L34.7262 47.4924C34.6977 47.4154 34.637 47.3547 34.56 47.3262L34.1111 47.1601C33.8663 47.0695 33.8663 46.7232 34.1111 46.6326L34.56 46.4665C34.637 46.438 34.6977 46.3773 34.7262 46.3003L34.8923 45.8514Z" fill="#4B94F7"/>
</svg>
